<svg viewBox="0 0 74 72" fill="none" xmlns="http://www.w3.org/2000/svg"><path d="M37 0C16.568 0 0 16.504 0 36.864c0 16.288 10.602 30.106 25.303 34.98 1.85.342 2.528-.799 2.528-1.773 0-.879-.034-3.783-.05-6.863-10.294 2.23-12.466-4.35-12.466-4.35-1.683-4.26-4.108-5.393-4.108-5.393-3.357-2.289.253-2.242.253-2.242 3.716.26 5.672 3.8 5.672 3.8 3.3 5.635 8.656 4.006 10.767 3.064.332-2.383 1.291-4.009 2.35-4.93-8.219-.932-16.858-4.093-16.858-18.218 0-4.025 1.445-7.313 3.812-9.895-.384-.928-1.65-4.678.358-9.756 0 0 3.108-.99 10.178 3.779 2.952-.817 6.117-1.226 9.261-1.24 3.145.014 6.312.423 9.27 1.24 7.061-4.77 10.164-3.779 10.164-3.779 2.014 5.078.747 8.828.363 9.756 2.372 2.582 3.808 5.87 3.808 9.895 0 14.159-8.656 17.276-16.895 18.19 1.327 1.143 2.51 3.387 2.51 6.826 0 4.932-.043 8.902-.043 10.116 0 .981.666 2.13 2.541 1.769C63.412 66.96 74 53.146 74 36.864 74 16.504 57.434 0 37 0ZM13.858 52.514c-.082.183-.37.238-.634.112-.269-.12-.42-.37-.332-.553.08-.189.369-.242.637-.115.269.12.422.372.329.556Zm1.82 1.618c-.177.163-.522.087-.756-.17-.242-.257-.287-.601-.108-.767.182-.163.516-.086.759.17.242.26.29.602.105.767Zm1.248 2.07c-.226.157-.597.01-.826-.318-.227-.328-.227-.72.005-.878.23-.158.595-.016.827.31.226.332.226.726-.006.886Zm2.112 2.398c-.203.222-.635.163-.95-.141-.324-.298-.415-.72-.211-.942.205-.224.64-.16.958.14.321.297.42.722.203.943Zm2.73.81c-.09.288-.506.42-.925.296-.419-.126-.693-.464-.608-.756.087-.29.505-.427.927-.296.418.126.692.461.605.755Zm3.105.342c.01.304-.345.556-.785.562-.442.01-.8-.236-.805-.535 0-.307.347-.557.79-.564.44-.009.8.235.8.537Zm3.051-.116c.053.297-.253.601-.69.682-.43.079-.827-.105-.882-.399-.053-.304.258-.608.687-.687.438-.076.83.102.885.404Z" fill="currentColor"></path></svg>