<svg xmlns="http://www.w3.org/2000/svg" viewBox="0 0 76.469 76.469"><path d="M38.234.015c10.859 0 21.7.031 32.56-.015a5.591 5.591 0 015.613 4.6 5.265 5.265 0 01.061.856v65.568a5.455 5.455 0 01-5.184 5.429c-.184.015-.383.015-.566.015H5.735a5.373 5.373 0 01-5.491-3.93 5.776 5.776 0 01-.229-1.621Q-.008 38.25 0 5.567A5.429 5.429 0 015.445.03c2.63-.031 5.246-.015 7.876-.015zm2.554 33.34c0-1.331-.031-2.676.015-4.007.015-.6-.2-.765-.8-.765-3.12.015-6.255.015-9.375.015-.948 0-.948 0-.948.933q0 17.435-.015 34.854c0 .734.229.933.948.933 3.227-.031 6.439-.015 9.666-.015.948 0 .948 0 .948-.948 0-5.842-.015-11.684.015-17.527a20.574 20.574 0 01.291-3.625c.443-2.432 1.545-4.435 4.16-5.093a10.077 10.077 0 012.539-.245c2.722.031 4.42 1.315 5.016 3.961a21.371 21.371 0 01.474 4.527c.046 6.01.031 12.021.015 18.031 0 .719.229.948.948.933 3.227-.031 6.439-.031 9.666 0 .7 0 .933-.184.933-.918-.031-6.959.061-13.933-.061-20.891a32.9 32.9 0 00-.872-6.913c-.933-4.053-3.288-7.02-7.448-8.182a28.274 28.274 0 00-4.42-.673 11.75 11.75 0 00-7.4 1.591 13.474 13.474 0 00-4.295 4.024zM11.21 46.936c0 5.812.015 11.639-.015 17.45 0 .749.245.918.933.918q4.863-.046 9.727 0c.673 0 .9-.184.9-.887q-.023-17.481 0-34.977c0-.642-.168-.872-.841-.856-3.273.031-6.53.031-9.8 0-.7 0-.933.153-.933.9.045 5.816.029 11.625.029 17.452zm5.781-23.247a6.637 6.637 0 10-6.653-6.592 6.593 6.593 0 006.653 6.593z" fill="currentColor"></path></svg>