<?xml version="1.0" standalone="no"?>
<!DOCTYPE svg PUBLIC "-//W3C//DTD SVG 20010904//EN"
 "http://www.w3.org/TR/2001/REC-SVG-20010904/DTD/svg10.dtd">
<svg version="1.0" xmlns="http://www.w3.org/2000/svg"
 width="700.000000pt" height="700.000000pt" viewBox="0 0 700.000000 700.000000"
 preserveAspectRatio="xMidYMid meet">
<metadata>
Created by potrace 1.14, written by Peter Selinger 2001-2017
</metadata>
<g transform="translate(0.000000,700.000000) scale(0.100000,-0.100000)"
fill="#000000" stroke="none">
<path d="M3588 6445 c-2 -2 -44 -5 -95 -9 -142 -9 -300 -32 -408 -59 -11 -3
-41 -10 -66 -16 -171 -39 -411 -137 -565 -232 -263 -160 -469 -385 -589 -643
-39 -83 -82 -197 -90 -237 -2 -8 -10 -44 -18 -80 -47 -199 -57 -526 -22 -729
2 -14 7 -41 9 -60 8 -50 50 -196 75 -257 119 -299 332 -533 661 -730 133 -80
355 -189 440 -218 3 -1 19 -7 35 -14 53 -23 239 -93 280 -106 227 -73 596
-215 715 -275 197 -99 344 -232 397 -358 38 -90 52 -261 29 -355 -28 -114
-138 -245 -263 -310 -169 -88 -326 -117 -608 -112 -104 2 -203 6 -220 9 -16 4
-68 13 -115 22 -228 41 -458 148 -674 312 -54 41 -106 82 -116 91 -9 9 -43 41
-76 72 -32 31 -79 78 -103 104 l-44 47 -413 -413 -414 -414 113 -115 c176
-179 276 -263 462 -387 199 -133 432 -240 668 -307 95 -28 316 -71 412 -82 33
-3 69 -8 80 -10 90 -17 505 -23 685 -10 120 9 132 10 295 32 133 17 365 76
505 127 546 200 927 591 1055 1083 41 155 56 275 59 459 7 362 -52 632 -191
874 -134 232 -306 413 -538 568 -121 80 -222 134 -390 204 -77 33 -149 64
-160 69 -42 18 -197 75 -385 140 -107 37 -244 87 -305 110 -60 24 -127 49
-148 57 -79 28 -215 97 -292 148 -186 123 -263 243 -270 416 -6 137 40 256
128 335 87 78 245 143 394 162 75 9 343 8 408 -2 112 -18 114 -18 223 -55 201
-67 387 -185 585 -371 l89 -83 416 417 417 417 -101 98 c-397 383 -938 613
-1564 667 -72 6 -387 13 -392 9z"/>
</g>
</svg>
